<?xml version="1.0" encoding="UTF-8"?>
<svg version="1.1" xmlns="http://www.w3.org/2000/svg" width="287" height="280">
<path d="M0 0 C0.95390625 0.80953125 1.9078125 1.6190625 2.890625 2.453125 C26.55300177 22.95873687 43.63197581 54.58546044 46 86 C47.57558387 127.97343089 39.39019101 163.03705772 10.35546875 194.90234375 C-3.17400567 209.1806309 -26.4870878 228.55545347 -46.9375 229.4375 C-49.56327278 229.43273453 -50.61715622 229.30326886 -52.69140625 227.66015625 C-54.98380152 224.75189359 -55.1263283 222.06307595 -55.1418457 218.50366211 C-55.15239738 217.14095436 -55.15239738 217.14095436 -55.16316223 215.75071716 C-55.16732651 214.76950394 -55.17149078 213.78829071 -55.17578125 212.77734375 C-55.19899408 210.69074528 -55.22311199 208.60415672 -55.24804688 206.51757812 C-55.28303776 203.23504139 -55.31243685 199.95286582 -55.32592773 196.67016602 C-55.34151365 193.49711352 -55.38180554 190.32511398 -55.42578125 187.15234375 C-55.42291862 185.70177834 -55.42291862 185.70177834 -55.41999817 184.22190857 C-55.57414888 175.5236193 -58.16855186 168.24717221 -63 161 C-59.69731327 158.79820885 -57.94763026 158.58650638 -54.0625 158.125 C-38.9413512 155.94325822 -23.91504794 150.00305009 -14.4375 137.5625 C-4.57537268 122.83476561 -1.94080751 103.13748124 -4.46484375 85.80859375 C-6.13149324 78.24456913 -8.99529054 68.89242789 -14.671875 63.375 C-16 62 -16 62 -16.25 58.5625 C-16 55 -16 55 -15.5 53.22265625 C-13.48188588 44.25150832 -14.65568241 34.46032723 -18 26 C-29.43203161 24.85679684 -39.85243392 30.40459871 -49.0859375 36.64453125 C-55.54410616 39.64853195 -62.74420363 37.66797808 -69.5 36.5 C-82.55772018 34.42990295 -94.63751276 34.36509075 -107.62353516 36.93212891 C-116.13023484 38.58180635 -122.26171887 39.15845559 -129.8125 34.25 C-137.87206213 29.26728584 -146.2939208 25.11762916 -156 26 C-158.67153282 36.00234611 -160.51732122 44.97209987 -157.5625 55.0625 C-156.82467608 58.28348305 -156.75375593 59.52173264 -158.28515625 62.49609375 C-159.52867842 64.18844558 -160.80606516 65.85634913 -162.11328125 67.5 C-171.16806938 79.49806295 -171.00383215 95.85959145 -169.25 110.0625 C-167.06190327 123.7532997 -162.16516684 137.13908898 -151 146 C-139.96705634 153.82274566 -127.25978712 157.73675018 -113.94140625 159.54296875 C-113.30074219 159.69378906 -112.66007812 159.84460938 -112 160 C-111.67 160.66 -111.34 161.32 -111 162 C-111.890625 163.59375 -111.890625 163.59375 -113.25 165.5 C-116.26764556 170.08514478 -117.61581392 174.73448132 -119 180 C-119.33 180.99 -119.66 181.98 -120 183 C-120.34820041 184.66362417 -120.68404492 186.32995171 -121 188 C-122.8125 188.625 -122.8125 188.625 -125 189 C-126.485 188.01 -126.485 188.01 -128 187 C-128.53625 187.515625 -129.0725 188.03125 -129.625 188.5625 C-132 190 -132 190 -135.125 189.8125 C-138 189 -138 189 -140 187 C-140.33 187.33 -140.66 187.66 -141 188 C-142.99958364 188.04080783 -145.00045254 188.04254356 -147 188 C-147.99 185.525 -147.99 185.525 -149 183 C-149.928125 183.061875 -150.85625 183.12375 -151.8125 183.1875 C-155 183 -155 183 -156.875 181.75 C-158 180 -158 180 -158 176 C-158.5775 175.95875 -159.155 175.9175 -159.75 175.875 C-163.12935009 174.5608083 -164.10747341 172.01621426 -166 169 C-167.98328361 166.89276116 -170.0522406 164.95223717 -172.1875 163 C-174.06422036 160.92913615 -174.61050856 159.72644011 -175 157 C-177.31 156.67 -179.62 156.34 -182 156 C-181.62497556 158.60278153 -181.28349753 159.74634431 -179.29296875 161.52734375 C-178.59816406 161.99269531 -177.90335938 162.45804688 -177.1875 162.9375 C-171.88897087 166.50630292 -169.01353161 170.70483274 -166.2109375 176.41894531 C-162.06378944 184.86075179 -157.82047111 191.28040589 -148.75 194.875 C-144.29111224 196.21266633 -140.71496258 197.12597624 -136.05078125 197.0625 C-135.12072266 197.05476562 -134.19066406 197.04703125 -133.23242188 197.0390625 C-132.26884766 197.02617187 -131.30527344 197.01328125 -130.3125 197 C-128.39198188 196.97461311 -126.47140019 196.95353857 -124.55078125 196.9375 C-123.70169189 196.92589844 -122.85260254 196.91429687 -121.9777832 196.90234375 C-120 197 -120 197 -119 198 C-118.6616001 202.40862243 -118.67486591 206.83006712 -118.625 211.25 C-118.56892578 213.11205078 -118.56892578 213.11205078 -118.51171875 215.01171875 C-118.42467997 223.99605509 -118.42467997 223.99605509 -120.9609375 228.421875 C-125.31823548 230.68453359 -128.33956568 230.245379 -133 229 C-136.1612857 227.90371469 -139.12800492 226.54582961 -142.125 225.0625 C-142.94540771 224.66426025 -143.76581543 224.26602051 -144.61108398 223.85571289 C-176.04898573 208.19620535 -201.21124507 181.29971014 -213 148 C-225.10287443 111.63269611 -223.15546015 76.20784958 -206.46069336 41.65258789 C-203.15013669 35.0404725 -199.41626659 28.94463249 -195 23 C-194.41089844 22.18917969 -193.82179688 21.37835938 -193.21484375 20.54296875 C-183.70539507 8.04541305 -172.27120221 -2.63798027 -159 -11 C-158.34612305 -11.41733398 -157.69224609 -11.83466797 -157.01855469 -12.26464844 C-108.58633432 -42.62960483 -43.09075733 -37.60148888 0 0 Z " fill="#FDFDFD" transform="translate(230,41)"/>
</svg>
