<?xml version="1.0" encoding="UTF-8"?>
<svg version="1.1" xmlns="http://www.w3.org/2000/svg" width="1000" height="1000">
<path d="M0 0 C2.05892151 -0.00433056 4.11783939 -0.01084797 6.17674786 -0.01936007 C11.82664841 -0.0363487 17.47610565 -0.02217194 23.12598288 -0.00284529 C29.22220482 0.01258073 35.31837241 -0.00081998 41.41459656 -0.0105896 C52.66431285 -0.02427989 63.91388257 -0.01541049 75.16357516 0.00482657 C85.55718213 0.02339123 95.95073869 0.03180466 106.34436226 0.03025818 C107.0340794 0.0301665 107.72379654 0.03007483 108.4344142 0.02998037 C111.23428668 0.02958721 114.03415915 0.02913758 116.83403161 0.02860898 C143.09445221 0.02373882 169.3547834 0.04639333 195.61517621 0.08256521 C218.93854276 0.11455448 242.26183294 0.12660923 265.58522034 0.1204834 C267.08268726 0.12009655 268.58015418 0.1197101 270.07762109 0.11932403 C270.81794516 0.11913268 271.55826923 0.11894134 272.32102735 0.11874419 C276.04783952 0.11778983 279.7746517 0.11687547 283.50146389 0.11600494 C284.23673054 0.11583115 284.9719972 0.11565736 285.72954466 0.1154783 C305.2259459 0.11112142 324.72233892 0.12114114 344.21873432 0.1358428 C344.91244575 0.13636294 345.60615718 0.13688308 346.32089017 0.13741899 C347.35954421 0.138198 347.35954421 0.138198 348.41918116 0.13899276 C349.45591865 0.13976937 349.45591865 0.13976937 350.51360034 0.14056167 C351.90551235 0.14160976 353.29742435 0.14266997 354.68933634 0.14374239 C364.38712513 0.15111873 374.08490224 0.15321198 383.78269349 0.15174838 C396.28194365 0.14990138 408.78113038 0.15831855 421.2803617 0.18338984 C427.30685922 0.19524794 433.33326119 0.20237617 439.35976982 0.19655228 C444.87735705 0.19137776 450.39474251 0.20007849 455.91229523 0.21982688 C457.90747473 0.22456365 459.90267391 0.22427048 461.89785045 0.21841651 C477.05864963 0.17823497 488.43205707 1.17307268 500.24024963 11.55505371 C509.1075034 20.48786943 510.45578985 31.30048527 510.50551987 43.31850719 C510.49392596 45.96793281 510.46318555 48.61673425 510.43165588 51.26599121 C510.42417861 53.13070565 510.41849272 54.99542804 510.414505 56.8601532 C510.39936554 61.72476598 510.36018716 66.58888713 510.31568909 71.45330811 C510.2672133 77.3129994 510.2491466 83.17285677 510.22587585 89.03269196 C510.18732693 97.89595464 510.11059256 106.7581425 510.04103088 115.62145996 C526.87103088 115.62145996 543.70103088 115.62145996 561.04103088 115.62145996 C561.04103088 320.55145996 561.04103088 525.48145996 561.04103088 736.62145996 C462.47415588 736.70395996 363.90728088 736.78645996 262.35353088 736.87145996 C231.19987122 736.90787598 200.04621155 736.94429199 167.94850159 736.98181152 C129.98475647 736.99987793 129.98475647 736.99987793 112.22747803 737.00323486 C98.97277752 737.00721631 85.71815849 737.02447489 72.46348085 737.04815367 C58.94578345 737.07197586 45.42813749 737.08080413 31.91041989 737.07523976 C23.87456237 737.07237131 15.83889631 737.08031134 7.80307424 737.10469034 C1.86904654 737.12147029 -4.06484708 737.11732024 -9.99888992 737.10506439 C-12.39670061 737.1033683 -14.79452771 737.10844059 -17.19230616 737.12099028 C-46.71010034 737.26639879 -46.71010034 737.26639879 -57.95896912 727.60974121 C-65.39708758 720.21520547 -70.64506533 712.32649702 -71.08201694 701.60114574 C-71.08063426 699.90458576 -71.08063426 699.90458576 -71.07922363 698.17375183 C-71.0805983 696.87109879 -71.08197296 695.56844574 -71.08338928 694.22631836 C-71.07985057 692.78991676 -71.07621577 691.3535154 -71.07249451 689.91711426 C-71.07221233 688.39915468 -71.07237097 686.88119497 -71.07293701 685.36323547 C-71.07322378 681.24794834 -71.06734652 677.13269039 -71.06036305 673.01741004 C-71.05410946 668.71459587 -71.05352413 664.41178102 -71.05233765 660.10896301 C-71.04923025 651.9634506 -71.04102483 643.81795162 -71.03098816 635.67244512 C-71.01980866 626.39802137 -71.01431194 617.12359699 -71.00929272 607.84916818 C-70.99884174 588.77325783 -70.98125374 569.69735997 -70.95896912 550.62145996 C-71.49939157 550.96316916 -72.03981403 551.30487835 -72.59661293 551.65694237 C-75.07740506 553.22531846 -77.55846832 554.79326515 -80.03953552 556.36120605 C-80.88951614 556.89865952 -81.73949677 557.43611298 -82.61523438 557.98985291 C-89.15873888 562.12447079 -95.72552276 566.21623845 -102.33396912 570.24645996 C-103.30334412 570.8432959 -104.27271912 571.44013184 -105.27146912 572.05505371 C-106.20732849 572.6261084 -107.14318787 573.19716309 -108.10740662 573.78552246 C-108.92386658 574.28519531 -109.74032654 574.78486816 -110.58152771 575.29968262 C-112.98455319 576.63568384 -115.40239282 577.61892227 -117.95896912 578.62145996 C-120.866684 580.39906712 -123.6930106 582.27731967 -126.53318787 584.16052246 C-128.95896912 585.62145996 -128.95896912 585.62145996 -130.95896912 585.62145996 C-131.18148903 536.34998618 -131.38845946 487.07847732 -131.50942993 437.80664062 C-131.51122467 437.07750103 -131.51301942 436.34836144 -131.51486854 435.59712671 C-131.55377558 419.75127956 -131.58978806 403.90542706 -131.6228184 388.05956659 C-131.63903389 380.28885538 -131.65588908 372.51814563 -131.67308044 364.74743652 C-131.67478031 363.97415408 -131.67648018 363.20087164 -131.67823156 362.40415639 C-131.73363763 337.33593354 -131.83129044 312.26809141 -131.95083299 287.20009925 C-132.07344704 261.44125152 -132.15347743 235.68261451 -132.17986399 209.92347988 C-132.18361005 206.2859052 -132.18784333 202.64833123 -132.19237328 199.01075745 C-132.19324977 198.29482488 -132.19412627 197.57889232 -132.19502933 196.84126483 C-132.21039697 185.31260832 -132.27070438 173.78460304 -132.34778556 162.2562122 C-132.42430571 150.66846613 -132.45250423 139.08152554 -132.43448702 127.49351913 C-132.42614124 121.21345158 -132.43913151 114.93529652 -132.50864029 108.65556717 C-132.57179601 102.90794987 -132.57518031 97.16353468 -132.53065475 91.41577154 C-132.5251505 89.33482493 -132.54174612 87.25368049 -132.58245049 85.17312473 C-132.8622897 69.98870883 -132.8622897 69.98870883 -129.67305253 66.02210534 C-126.17063969 63.00447116 -122.23867719 61.33131369 -117.95896912 59.62145996 C-116.6055738 58.81921406 -115.26545581 57.99210256 -113.96287537 57.10974121 C-101.06253589 48.94755178 -87.89889701 41.23202916 -74.70040894 33.56382751 C-71.61847829 31.77302576 -68.53823567 29.97933833 -65.45896912 28.18395996 C-64.8449826 27.82603363 -64.23099609 27.4681073 -63.59840393 27.09933472 C-54.29439439 21.66652089 -45.13330961 16.0464404 -36.09764099 10.17443848 C-35.28359802 9.64648682 -34.46955505 9.11853516 -33.63084412 8.57458496 C-32.94087341 8.12244629 -32.25090271 7.67030762 -31.5400238 7.20446777 C-30.26240173 6.42087891 -30.26240173 6.42087891 -28.95896912 5.62145996 C-28.45765832 5.21671747 -27.95634753 4.81197497 -27.4398455 4.39496756 C-19.31136837 -1.32617445 -9.48777378 -0.06437874 0 0 Z " fill="#39A5CB" transform="translate(284.95896911621094,131.3785400390625)"/>
<path d="M0 0 C16.83 0 33.66 0 51 0 C51 204.93 51 409.86 51 621 C-47.566875 621.0825 -146.13375 621.165 -247.6875 621.25 C-278.84115967 621.28641602 -309.99481934 621.32283203 -342.0925293 621.36035156 C-380.05627441 621.37841797 -380.05627441 621.37841797 -397.81355286 621.3817749 C-411.06825336 621.38575635 -424.3228724 621.40301493 -437.57755004 621.42669371 C-451.09524743 621.4505159 -464.6128934 621.45934417 -478.13061099 621.4537798 C-486.16646852 621.45091134 -494.20213458 621.45885138 -502.23795665 621.48323038 C-508.17198435 621.50001033 -514.10587797 621.49586027 -520.03992081 621.48360443 C-522.4377315 621.48190834 -524.8355586 621.48698063 -527.23333704 621.49953032 C-556.75113122 621.64493882 -556.75113122 621.64493882 -568 611.98828125 C-576.67633987 603.36277931 -581.10065907 594.87503624 -581.14717102 582.54124451 C-581.15432632 581.23595795 -581.16148163 579.93067139 -581.16885376 578.58583069 C-581.1716936 577.14633203 -581.17440538 575.70683311 -581.17700195 574.26733398 C-581.1832707 572.74601081 -581.18991787 571.22468915 -581.19691467 569.70336914 C-581.21789544 564.71762141 -581.22830633 559.73187355 -581.23828125 554.74609375 C-581.24233 553.02844794 -581.24644696 551.3108023 -581.25063133 549.59315681 C-581.26966394 541.52859971 -581.28390322 533.46405169 -581.2922433 525.39947647 C-581.30203143 516.08898625 -581.32839989 506.77873278 -581.36874419 497.46832603 C-581.39886807 490.26991873 -581.41370832 483.07157949 -581.41702431 475.87311035 C-581.41937759 471.5737872 -581.428375 467.27471755 -581.45348549 462.97546196 C-581.47670847 458.93457976 -581.48102303 454.89411911 -581.47072411 450.85318756 C-581.47022734 449.36968397 -581.47658911 447.88616 -581.49028015 446.4027195 C-581.50791327 444.37914693 -581.49853568 442.35539248 -581.48774719 440.33177185 C-581.49013555 439.19892982 -581.4925239 438.06608778 -581.49498463 436.8989172 C-580.88632194 433.33423532 -579.78159686 432.2322809 -577 430 C-575.15923759 428.78796975 -573.27824634 427.63587328 -571.37109375 426.53125 C-569.69176758 425.54898438 -569.69176758 425.54898438 -567.97851562 424.546875 C-566.79845566 423.86410163 -565.61811759 423.1818087 -564.4375 422.5 C-562.16353562 421.18022961 -559.8914444 419.85722729 -557.62109375 418.53125 C-557.05919368 418.21104234 -556.49729361 417.89083469 -555.91836627 417.56092377 C-552.42359953 415.53911131 -549.125732 413.39810192 -545.88853711 410.98322749 C-533.42881451 401.93068532 -523.70408561 400.28578742 -508.55635071 400.5569458 C-506.34966559 400.5517011 -504.1429879 400.54117248 -501.93634957 400.52587581 C-495.92406392 400.4992485 -489.91438018 400.54674801 -483.90242565 400.60721254 C-478.0696584 400.65395807 -472.23716279 400.64366277 -466.40425519 400.63503044 C-454.48652232 400.61933225 -442.56959308 400.65909577 -430.65209389 400.73123932 C-418.86425087 400.80241395 -407.07674309 400.84846463 -395.28868675 400.86147308 C-394.18642062 400.8627104 -394.18642062 400.8627104 -393.06188649 400.86397271 C-389.32949315 400.8680331 -385.59709953 400.87164956 -381.86470558 400.87509522 C-355.47590127 400.90025362 -329.08753335 400.98097082 -302.69897461 401.09472656 C-277.07399755 401.2050626 -251.44914117 401.28980234 -225.82397461 401.34082031 C-224.2106391 401.34406801 -222.59730359 401.34731647 -220.98396808 401.35056567 C-207.87347182 401.37683361 -194.76297227 401.40134349 -181.65247183 401.42542747 C-121.10123427 401.53792558 -60.5511366 401.77880863 0 402 C0 269.34 0 136.68 0 0 Z " fill="#36687F" transform="translate(795,247)"/>
<path d="M0 0 C29.7 0 59.4 0 90 0 C91.60389079 4.00972698 92.2160633 6.67548779 92.66015625 10.8359375 C93.26826684 14.70827387 94.69741153 18.31553546 96 22 C98.01100339 27.82569025 99.32361866 33.60889246 100.3125 39.6875 C101.94817754 49.61417833 104.58754142 59.23335771 107.19287109 68.94140625 C108.81178962 75.07625541 110.31329501 81.24121429 111.81958008 87.40454102 C113.07305634 92.48025281 114.42204035 97.51340513 115.88183594 102.53393555 C117.85459999 109.41238948 119.65330824 116.32253995 121.3828125 123.265625 C121.68315399 124.46507751 121.98349548 125.66453003 122.29293823 126.90032959 C122.92089397 129.41080345 123.54768389 131.92156919 124.17333984 134.43261719 C125.12635813 138.25544786 126.08442303 142.0769895 127.04296875 145.8984375 C127.65655193 148.35409125 128.26984329 150.80981793 128.8828125 153.265625 C129.16617462 154.39502502 129.44953674 155.52442505 129.7414856 156.68804932 C131.15814128 162.38809306 132.47443107 168.08458476 133.5778656 173.85392761 C134.25266785 177.28452808 135.08329654 180.67281718 135.9375 184.0625 C136.11079834 184.7544043 136.28409668 185.44630859 136.46264648 186.15917969 C137.55573468 190.45089895 138.82004597 194.62754989 140.28125 198.8046875 C143.30434866 208.03828232 146 218.25089137 146 228 C146.66 228 147.32 228 148 228 C148.11085938 226.88367188 148.22171875 225.76734375 148.3359375 224.6171875 C148.96178376 219.64312715 150.25603516 214.93902446 151.625 210.125 C152.17117402 208.16553203 152.71672081 206.20588915 153.26171875 204.24609375 C153.54708496 203.22499512 153.83245117 202.20389648 154.12646484 201.15185547 C155.59868135 195.83986132 157.01395574 190.51269885 158.4375 185.1875 C160.76759806 176.5080941 163.13933057 167.84138952 165.5625 159.1875 C165.85012207 158.15874756 166.13774414 157.12999512 166.43408203 156.07006836 C167.82588752 151.11131824 169.24076244 146.16108501 170.703125 141.22265625 C173.22530663 132.66724169 175.44811516 124.4429878 176.57421875 115.58203125 C177.14651834 112.11148052 178.55433396 109.19251251 180 106 C180.34272281 104.51320048 180.64493247 103.01678553 180.91796875 101.515625 C182.01974236 95.77021506 183.38696519 90.11023728 184.8125 84.4375 C185.07603271 83.3846582 185.33956543 82.33181641 185.61108398 81.24707031 C187.31231052 74.52412629 189.16087923 67.86713658 191.17504883 61.23217773 C192.79010005 55.86095296 194.16897808 50.44796393 195.5 45 C197.21689087 37.97702831 199.10423871 31.03581942 201.18652344 24.11279297 C202.99128171 18.10027952 204.61650396 12.04993977 206.203125 5.9765625 C206.74110469 3.96705013 207.34215791 1.97352626 208 0 C236.71 0 265.42 0 295 0 C295 94.05 295 188.1 295 285 C272.56 285 250.12 285 227 285 C226.67 225.93 226.34 166.86 226 106 C224.39979458 110.00051355 223.62761308 112.73083739 223.0625 116.875 C222.31169862 121.70241822 220.96589771 125.51775322 219 130 C217.62352045 135.10387714 216.46866634 140.25975042 215.57739258 145.47094727 C214.41286228 152.27892382 212.74994246 158.811759 210.8125 165.4375 C208.16676545 174.66657984 205.72589288 183.92604339 203.4375 193.25 C201.20886313 202.31489692 198.82707961 211.30437832 196.20117188 220.26171875 C193.98311676 227.89182836 192.07730544 235.58797227 190.19042969 243.30566406 C188.51687086 250.09521463 186.67835035 256.8086671 184.56030273 263.47363281 C183.56726965 266.67642583 182.92900504 269.62722508 182.55078125 272.96875 C182 277 182 277 179 285 C156.56 285 134.12 285 111 285 C109.68 279.39 108.36 273.78 107 268 C106.15617899 265.00000651 105.30531367 262.0322012 104.375 259.0625 C102.77504977 253.8056929 101.42962427 248.5975242 100.4609375 243.1875 C99.81437513 240.11906844 98.75877102 237.23490971 97.71875 234.28125 C96.7030606 231.05754018 96.14502932 227.78436689 95.53125 224.46484375 C95.01571919 222.07293242 94.32095605 219.86528171 93.5 217.5625 C92.36171376 214.34039193 91.62764469 211.23012895 91.0715332 207.85986328 C90.1073819 202.37870963 88.80798346 197.04938044 87.35546875 191.6796875 C87.10380447 190.73674835 86.8521402 189.7938092 86.59284973 188.82229614 C86.06291419 186.84028542 85.53088094 184.85883445 84.99682617 182.87792969 C84.19539665 179.9042998 83.40084685 176.92889946 82.60742188 173.953125 C80.1020801 164.58925649 77.52503838 155.25558894 74.75544739 145.96636963 C72.65186982 138.88959732 70.75456506 131.76437558 68.875 124.625 C68.20601257 122.09627917 67.53674642 119.56763207 66.8671875 117.0390625 C66.57956543 115.94803223 66.29194336 114.85700195 65.99560547 113.73291016 C64.68432265 108.81640348 63.33883849 103.90907446 62 99 C61.67 160.38 61.34 221.76 61 285 C40.87 285 20.74 285 0 285 C0 190.95 0 96.9 0 0 Z " fill="#FDFEFE" transform="translate(383,249)"/>
<path d="M0 0 C0.34242158 49.02415924 0.66082673 98.04840192 0.84686279 147.07342529 C0.84962393 147.79919318 0.85238508 148.52496107 0.85522989 149.27272192 C0.91509028 165.04622232 0.97049359 180.81973544 1.02130659 196.59326752 C1.04625297 204.32878272 1.0721841 212.06429448 1.09863281 219.79980469 C1.10124799 220.56957441 1.10386317 221.33934413 1.1065576 222.13244021 C1.19176113 247.075982 1.34196749 272.01861671 1.52594442 296.96160913 C1.7146868 322.59729497 1.83772903 348.23247901 1.8782998 373.86884792 C1.88406276 377.49108574 1.89057549 381.11332186 1.89754486 384.73555756 C1.89889332 385.44845413 1.90024178 386.1613507 1.9016311 386.8958502 C1.92525179 398.36463052 2.01796972 409.83185767 2.13664068 421.30000494 C2.25451797 432.83435086 2.29771317 444.36655685 2.27002755 455.90159574 C2.25720678 462.15079076 2.27692494 468.39543512 2.3841095 474.64382172 C2.48159071 480.36837213 2.48630602 486.08532504 2.4179779 491.81022844 C2.40953827 493.8778764 2.43483456 495.94600176 2.49766365 498.01271215 C2.85903117 510.63602749 2.85903117 510.63602749 0 516 C-4.9643232 521.0096374 -11.26478248 523.99346614 -17.61601296 526.88289222 C-20.83726568 528.39233267 -23.76727402 530.19482879 -26.7734375 532.09375 C-27.71960938 532.66867187 -28.66578125 533.24359375 -29.640625 533.8359375 C-30.54296875 534.38507812 -31.4453125 534.93421875 -32.375 535.5 C-33.80972656 536.37011719 -33.80972656 536.37011719 -35.2734375 537.2578125 C-40.97455507 540.72590589 -40.97455507 540.72590589 -46.5390625 544.40625 C-49 546 -49 546 -51 546 C-51.33 546.99 -51.66 547.98 -52 549 C-53.49267578 550.2199707 -53.49267578 550.2199707 -55.4453125 551.42578125 C-56.18185059 551.8861377 -56.91838867 552.34649414 -57.67724609 552.82080078 C-58.48500488 553.31306152 -59.29276367 553.80532227 -60.125 554.3125 C-60.95725098 554.82796387 -61.78950195 555.34342773 -62.64697266 555.87451172 C-64.45672297 556.99264196 -66.26918977 558.10638428 -68.08398438 559.21630859 C-71.12937022 561.07913419 -74.16638745 562.95514558 -77.203125 564.83203125 C-79.25988408 566.09722038 -81.31716648 567.3615592 -83.375 568.625 C-84.35484863 569.22868408 -85.33469727 569.83236816 -86.34423828 570.4543457 C-87.26962402 571.01855225 -88.19500977 571.58275879 -89.1484375 572.1640625 C-89.96489746 572.66373535 -90.78135742 573.1634082 -91.62255859 573.67822266 C-94.02558407 575.01422388 -96.4434237 575.99746231 -99 577 C-101.90771488 578.77760716 -104.73404148 580.65585971 -107.57421875 582.5390625 C-110 584 -110 584 -112 584 C-112.22251991 534.72852622 -112.42949035 485.45701735 -112.55046082 436.18518066 C-112.55225556 435.45604107 -112.5540503 434.72690148 -112.55589943 433.97566675 C-112.59480647 418.1298196 -112.63081894 402.2839671 -112.66384928 386.43810663 C-112.68006478 378.66739542 -112.69691996 370.89668566 -112.71411133 363.12597656 C-112.7158112 362.35269412 -112.71751106 361.57941168 -112.71926244 360.78269643 C-112.77466852 335.71447358 -112.87232132 310.64663145 -112.99186387 285.57863929 C-113.11447793 259.81979156 -113.19450831 234.06115455 -113.22089487 208.30201992 C-113.22464093 204.66444524 -113.22887421 201.02687127 -113.23340416 197.38929749 C-113.23428066 196.67336492 -113.23515716 195.95743236 -113.23606022 195.21980486 C-113.25142785 183.69114836 -113.31173526 172.16314308 -113.38881644 160.63475224 C-113.4653366 149.04700617 -113.49353511 137.46006558 -113.47551791 125.87205917 C-113.46717212 119.59199162 -113.48016239 113.31383656 -113.54967117 107.03410721 C-113.6128269 101.28648991 -113.6162112 95.54207472 -113.57168563 89.79431158 C-113.56618138 87.71336497 -113.58277701 85.63222053 -113.62348137 83.55166477 C-113.90332058 68.36724887 -113.90332058 68.36724887 -110.71408342 64.40064538 C-107.21167058 61.3830112 -103.27970807 59.70985373 -99 58 C-97.64660468 57.1977541 -96.3064867 56.3706426 -95.00390625 55.48828125 C-82.10357579 47.32609753 -68.93994113 39.61059259 -55.74147034 31.94238281 C-52.65952801 30.15157845 -49.57924366 28.35794034 -46.5 26.5625 C-45.58001724 26.02610901 -45.58001724 26.02610901 -44.64144897 25.47888184 C-34.42718078 19.51344619 -24.40700543 13.28431893 -14.4765625 6.85546875 C-3.80049261 0 -3.80049261 0 0 0 Z " fill="#7EC4DD" transform="translate(266,133)"/>
<path d="M0 0 C12.21 0 24.42 0 37 0 C47.40379812 32.48905378 47.40379812 32.48905378 51.26123047 44.67626953 C51.91847103 46.74355825 52.58437712 48.80776155 53.25390625 50.87109375 C55.13252431 56.75650606 56.50722867 62.47949123 57.50390625 68.57421875 C58.19219152 71.93977115 59.58699732 74.87961907 61 78 C61.48968017 79.94028086 61.97747384 81.88110609 62.44677734 83.82641602 C63.50961908 88.00226771 64.89491677 92.08137787 66.23242188 96.17578125 C67.51057965 100.16857623 68.30346653 103.82079915 69 108 C60.09 108 51.18 108 42 108 C39.69 100.41 37.38 92.82 35 85 C24.44 84.67 13.88 84.34 3 84 C1.77173687 89.27896781 1.77173687 89.27896781 0.54736328 94.55883789 C0.38993652 95.23164795 0.23250977 95.90445801 0.0703125 96.59765625 C-0.16534424 97.61098022 -0.16534424 97.61098022 -0.40576172 98.64477539 C-1.19743739 101.78253019 -2.11097868 104.88842538 -3 108 C-11.91 108 -20.82 108 -30 108 C-29.67 105.36 -29.34 102.72 -29 100 C-28.34 100 -27.68 100 -27 100 C-26.98582031 99.3915625 -26.97164063 98.783125 -26.95703125 98.15625 C-26.60968942 91.77267046 -25.28227076 86.14568556 -23.28588867 80.08398438 C-21.04847066 73.2731691 -19.07708643 66.3975279 -17.125 59.5 C-14.57321098 50.51135773 -12.00098052 41.5297644 -9.375 32.5625 C-6.20195292 21.72178419 -3.09316331 10.86379308 0 0 Z " fill="#FAFBFB" transform="translate(423,700)"/>
<path d="M0 0 C12.21 0 24.42 0 37 0 C41.58532673 14.28915772 46.0060565 28.58711039 49.5 43.1875 C50.71672866 48.1631725 52.29119558 52.96551578 53.95532227 57.80810547 C56.10393347 64.13743378 57.89015448 70.55703286 59.68530273 76.99389648 C61.6110225 83.8243878 63.78207054 90.54536276 66.17163086 97.2277832 C67.53922399 101.15048315 68 103.74446447 68 108 C59.09 108 50.18 108 41 108 C39.02 100.41 37.04 92.82 35 85 C23.78 84.67 12.56 84.34 1 84 C1 86.97 1 89.94 1 93 C0.16015625 96.90625 0.16015625 96.90625 -0.9375 100.5 C-1.29714844 101.7065625 -1.65679688 102.913125 -2.02734375 104.15625 C-3 107 -3 107 -4 108 C-5.99964982 108.08758003 -8.0023611 108.10696576 -10.00390625 108.09765625 C-11.82631836 108.09282227 -11.82631836 108.09282227 -13.68554688 108.08789062 C-14.96494141 108.07951172 -16.24433594 108.07113281 -17.5625 108.0625 C-18.84576172 108.05798828 -20.12902344 108.05347656 -21.45117188 108.04882812 C-24.63416022 108.03699545 -27.81705762 108.02051068 -31 108 C-28.28286776 96.67596932 -25.19467564 85.48880952 -21.90087891 74.31958008 C-21.12922 71.70181587 -20.36306426 69.08248851 -19.59765625 66.46289062 C-16.86944908 57.1563457 -14.0366856 47.89072226 -11.09152222 38.65061951 C-8.99767915 32.05641867 -7.07916464 25.42258651 -5.25 18.75 C-4.67198211 16.66142869 -4.09386008 14.57288619 -3.515625 12.484375 C-3.27102539 11.59459961 -3.02642578 10.70482422 -2.77441406 9.78808594 C-1.86683105 6.5205582 -0.93164267 3.26074935 0 0 Z " fill="#FAFBFC" transform="translate(599,700)"/>
<path d="M0 0 C8.91 0 17.82 0 27 0 C32.59784188 11.19568377 37.42386748 22.30283977 41.7890625 33.9921875 C43.03596109 37.0893227 44.46861384 40.03459906 46 43 C47.91533213 40.12700181 49.22219762 37.41268114 50.609375 34.2578125 C51.37121094 32.53304687 51.37121094 32.53304687 52.1484375 30.7734375 C52.67695312 29.56945312 53.20546875 28.36546875 53.75 27.125 C57.7491819 18.04143105 61.81866384 9.00113982 66 0 C74.58 0 83.16 0 92 0 C91.04182924 4.79085381 89.47265639 7.98607522 87 12.0625 C83.76823419 17.22581854 83.76823419 17.22581854 82 23 C81.34 23 80.68 23 80 23 C79.67 24.98 79.34 26.96 79 29 C78.34 29 77.68 29 77 29 C76.78085937 29.76441406 76.56171875 30.52882813 76.3359375 31.31640625 C74.49345809 36.39669304 72.06387699 41.12071795 69.625 45.9375 C69.14289063 46.90107422 68.66078125 47.86464844 68.1640625 48.85742188 C64.27632971 56.58534724 64.27632971 56.58534724 61.86767578 60.19970703 C59.30403849 64.67620749 59.39749294 69.0341134 59.390625 74.08984375 C59.37408875 75.03436905 59.35755249 75.97889435 59.34051514 76.95204163 C59.29221289 79.94726174 59.27070362 82.94197479 59.25 85.9375 C59.22182547 87.97723881 59.19189598 90.01695418 59.16015625 92.05664062 C59.08317729 97.03798967 59.04249244 102.01776185 59 107 C50.42 107 41.84 107 33 107 C33.06703125 104.16277344 33.1340625 101.32554687 33.203125 98.40234375 C33.62646533 69.39634924 33.62646533 69.39634924 21.69482422 43.53613281 C18.70935999 39.06868793 16.27322849 34.30090018 13.75 29.5625 C12.76181598 27.75444284 11.77227015 25.94712919 10.78125 24.140625 C8.20246227 19.39863929 5.68907092 14.62783076 3.25 9.8125 C2.91452148 9.15902588 2.57904297 8.50555176 2.23339844 7.83227539 C0.82379583 5.00964881 0 3.20203186 0 0 Z " fill="#FCFDFD" transform="translate(484,700)"/>
<path d="M0 0 C2.04608379 3.06912568 2.61603525 5.03608247 3.40234375 8.59375 C3.65306641 9.7075 3.90378906 10.82125 4.16210938 11.96875 C4.41798828 13.1340625 4.67386719 14.299375 4.9375 15.5 C5.44440951 17.781741 5.9535053 20.06299745 6.46484375 22.34375 C6.71476074 23.45878906 6.96467773 24.57382812 7.22216797 25.72265625 C8.1697226 29.71511492 9.27904195 33.64831288 10.45141602 37.58007812 C11 40 11 40 11 45 C4.07 45 -2.86 45 -10 45 C-8.78841109 34.09569978 -6.99190616 23.61243423 -4.5 12.9375 C-4.28633789 12.0084082 -4.07267578 11.07931641 -3.85253906 10.12207031 C-3.64338867 9.24518555 -3.43423828 8.36830078 -3.21875 7.46484375 C-3.03248047 6.677146 -2.84621094 5.88944824 -2.65429688 5.07788086 C-2 3 -2 3 0 0 Z " fill="#3F6F85" transform="translate(617,719)"/>
<path d="M0 0 C0.66 0 1.32 0 2 0 C4.58029767 9.33460628 6.954902 18.71646029 9.25 28.125 C9.52021973 29.21546631 9.79043945 30.30593262 10.06884766 31.42944336 C10.44468994 32.98417358 10.44468994 32.98417358 10.828125 34.5703125 C11.0540332 35.49602051 11.27994141 36.42172852 11.51269531 37.37548828 C12 40 12 40 12 45 C5.07 45 -1.86 45 -9 45 C-8 35 -8 35 -7 34 C-6.48082822 31.48127518 -6.00669243 28.96953788 -5.5625 26.4375 C-3.94056625 17.47008729 -3.94056625 17.47008729 -2.9375 13.625 C-1.77154414 9.11663734 -0.88053455 4.57128575 0 0 Z " fill="#3F6F84" transform="translate(440,719)"/>
</svg>
