<?xml version="1.0" encoding="UTF-8"?>
<svg version="1.1" xmlns="http://www.w3.org/2000/svg" width="512" height="512">
<path d="M0 0 C1.47319566 -0.0037421 2.94638935 -0.00834584 4.41957992 -0.01373065 C8.44595245 -0.02590724 12.47224155 -0.02570651 16.49862826 -0.02334189 C20.84988777 -0.02293236 25.20112102 -0.03398595 29.55236816 -0.04345703 C38.06982669 -0.06003941 46.58725753 -0.06556535 55.10473085 -0.06668179 C62.03274507 -0.06763371 68.96075018 -0.07175122 75.88876152 -0.07808304 C95.55440355 -0.09568905 115.2200238 -0.10492308 134.88567377 -0.10342209 C136.4745099 -0.10330222 136.4745099 -0.10330222 138.09544373 -0.10317993 C139.15596952 -0.10309817 140.21649532 -0.10301641 141.30915826 -0.10293217 C158.48510295 -0.10211978 175.66095984 -0.12124733 192.83687914 -0.14945666 C210.49598784 -0.1782294 228.15505379 -0.1919945 245.81418651 -0.19026911 C255.71912434 -0.18960666 265.62397016 -0.19503531 275.5288868 -0.21662521 C283.96435845 -0.234895 292.3996964 -0.23913706 300.83517934 -0.22560637 C305.13303902 -0.21910544 309.43064263 -0.21885445 313.72847748 -0.23631287 C352.60240286 -0.38443873 352.60240286 -0.38443873 369.13328552 7.95492554 C369.83284363 8.29813843 370.53240173 8.64135132 371.25315857 8.9949646 C392.50323753 19.77953189 407.83211557 38.22078047 416.32078552 60.26742554 C419.55118124 70.716524 420.90543795 80.27611384 420.83544922 91.23710632 C420.84079203 92.66868699 420.84786756 94.10026204 420.85649627 95.53182667 C420.87492156 99.41546538 420.86888924 103.29871757 420.85834324 107.18237102 C420.85129319 111.39043239 420.86739287 115.59841889 420.88034058 119.80645752 C420.90189031 128.03102825 420.90187683 136.25546013 420.89371503 144.48004977 C420.88739331 151.17097534 420.8885719 157.86186069 420.89498711 164.55278587 C420.89588876 165.50818265 420.89679042 166.46357943 420.89771939 167.44792762 C420.89957076 169.38935319 420.90143332 171.33077875 420.90330695 173.2722043 C420.91985434 191.44393235 420.91119272 209.61558257 420.89432137 227.78730591 C420.87963113 244.37632784 420.89424876 260.96516854 420.92309154 277.55416713 C420.95255419 294.62814249 420.96343759 311.70203441 420.95390934 328.77603406 C420.95288689 330.71089533 420.95189227 332.64575661 420.95092583 334.5806179 C420.95044944 335.53237083 420.94997305 336.48412376 420.94948222 337.46471769 C420.94732694 344.13804876 420.9570749 350.81130002 420.97169685 357.48461342 C420.9892993 365.6311648 420.98899033 373.77748544 420.9663452 381.92402808 C420.95527368 386.07235518 420.95187718 390.22027696 420.9706459 394.36858559 C421.1366004 433.93375524 421.1366004 433.93375524 411.00828552 451.32992554 C410.4269989 452.37237427 410.4269989 452.37237427 409.83396912 453.43588257 C406.53998596 459.19732923 402.82216335 464.37998063 398.32078552 469.26742554 C397.51125427 470.16848022 396.70172302 471.06953491 395.86766052 471.99789429 C381.82448378 486.8828404 361.0681517 498.51108385 340.29849875 499.3962267 C339.22193121 499.39801527 338.14536367 499.39980384 337.03617287 499.40164661 C335.78703814 499.40610446 334.53790342 499.4105623 333.25091612 499.41515523 C331.87256407 499.41506595 330.49421202 499.41487612 329.11585999 499.41459656 C327.64540522 499.41789809 326.17495136 499.42162427 324.70449865 499.42573804 C320.66717976 499.43573349 316.62987573 499.43947088 312.59254622 499.44212735 C308.23647035 499.44603776 303.88040616 499.45561565 299.52433777 499.46434021 C289.00535142 499.48408492 278.48636414 499.49416879 267.96736389 499.503068 C263.00936862 499.5074546 258.05137441 499.51282048 253.09337997 499.51805687 C236.60384912 499.53506796 220.11431893 499.54956071 203.62478065 499.55680561 C199.34750492 499.5587154 195.0702292 499.56063574 190.79295349 499.56259155 C189.19837832 499.56331716 189.19837832 499.56331716 187.57158951 499.56405743 C170.36238672 499.57235243 153.15325355 499.59768094 135.94408114 499.63017223 C118.2613785 499.66328434 100.57871118 499.68125816 82.89597738 499.68444985 C72.9736794 499.68661122 63.05148293 499.69530498 53.12921524 499.72091103 C44.67642409 499.74267488 36.22375911 499.75064061 27.77094312 499.74094424 C23.46310375 499.73641583 19.15552439 499.73820012 14.8477211 499.75770569 C10.89323897 499.77545565 6.93920424 499.77424512 2.98471658 499.7588084 C1.56469589 499.75645009 0.14464323 499.760662 -1.27532892 499.77263705 C-24.66447537 499.95744438 -47.04158939 491.43265624 -63.86280823 475.07992554 C-64.79222229 474.15180054 -65.72163635 473.22367554 -66.67921448 472.26742554 C-67.49519104 471.46305054 -68.3111676 470.65867554 -69.15187073 469.82992554 C-77.44095468 461.18539201 -82.81606191 451.11766318 -87.05421448 440.01742554 C-87.29293274 439.39271362 -87.531651 438.76800171 -87.77760315 438.12435913 C-91.36109772 428.18388775 -91.97163757 418.58616507 -91.94664001 408.07501221 C-91.95038252 406.65472617 -91.95498642 405.23444218 -91.96037066 403.81416142 C-91.97254215 399.93407786 -91.97234714 396.05408089 -91.96998191 392.17398262 C-91.96957225 387.98020745 -91.98062713 383.78645949 -91.99009705 379.59269714 C-92.0066763 371.38438853 -92.01220522 363.17610865 -92.0133218 354.96778469 C-92.01427382 348.29147802 -92.01839177 341.61518079 -92.02472305 334.93887711 C-92.04232773 315.98755711 -92.05156323 297.03625971 -92.05006211 278.08493148 C-92.04998219 277.06427561 -92.04990228 276.04361974 -92.04981995 274.99203491 C-92.04973818 273.9701248 -92.04965642 272.94821468 -92.04957218 271.8953376 C-92.04875969 255.34273573 -92.06789007 238.79022495 -92.09609668 222.23764943 C-92.12486692 205.21926235 -92.13863467 188.20091963 -92.13690913 171.18250763 C-92.13624661 161.63698168 -92.14167783 152.09155119 -92.16326523 142.54604721 C-92.18153167 134.417235 -92.18577976 126.28856154 -92.17224638 118.15973763 C-92.16574395 114.01794384 -92.16550001 109.87641579 -92.18295288 105.73464775 C-92.1988107 101.93204576 -92.19569248 98.1299174 -92.17838462 94.32732607 C-92.17391759 92.32347963 -92.18887166 90.31961772 -92.20486391 88.31583011 C-92.02269828 64.00498172 -81.68012717 42.29195061 -64.67921448 25.26742554 C-63.87483948 24.45144897 -63.07046448 23.63547241 -62.24171448 22.79476929 C-53.59718095 14.50568533 -43.52945212 9.1305781 -32.42921448 4.89242554 C-31.80450256 4.65370728 -31.17979065 4.41498901 -30.53614807 4.16903687 C-20.44468304 0.53110977 -10.66191499 -0.0258283 0 0 Z " fill="#1E3101" transform="translate(91.67921447753906,5.732574462890625)"/>
<path d="M0 0 C5.60373468 -0.08717532 11.20705624 -0.15033571 16.81137085 -0.18435669 C18.5609878 -0.19669357 20.3105783 -0.21402622 22.06008911 -0.23690796 C48.35873419 -0.5602846 76.08765022 3.9686276 95.92681885 22.72186279 C111.3762204 38.01079142 117.29312538 55.87102551 117.48175049 77.10931396 C117.49576904 78.19752441 117.5097876 79.28573486 117.52423096 80.40692139 C117.4290651 96.58633679 112.24809794 112.39125746 102.10675049 125.04681396 C101.17862549 126.22050537 101.17862549 126.22050537 100.23175049 127.41790771 C88.58279871 141.34498111 72.26994828 147.75686066 55.10675049 152.04681396 C53.65099609 152.44501343 53.65099609 152.44501343 52.16583252 152.85125732 C41.65202647 155.47083024 31.50302994 155.39172513 20.73175049 155.23431396 C18.91665754 155.21922605 17.10155233 155.20554497 15.28643799 155.19329834 C10.89289918 155.16064985 6.49996496 155.10909961 2.10675049 155.04681396 C2.1089711 155.92155869 2.11119171 156.79630341 2.11347961 157.69755554 C2.13348027 165.92356743 2.14872346 174.1495712 2.15856266 182.37560177 C2.16379105 186.60512768 2.17088789 190.83463357 2.18218994 195.06414795 C2.1930204 199.14249939 2.19902766 203.22083153 2.20162773 207.29919624 C2.20348169 208.85859036 2.20710176 210.41798337 2.21248055 211.97736931 C2.2196931 214.15410558 2.22074134 216.33076111 2.22027588 218.50750732 C2.22249649 219.74882919 2.2247171 220.99015106 2.227005 222.26908875 C2.10675049 225.04681396 2.10675049 225.04681396 1.10675049 226.04681396 C-0.30000171 226.14486247 -1.71160087 226.17479583 -3.12176514 226.1762085 C-4.46821106 226.18093674 -4.46821106 226.18093674 -5.84185791 226.1857605 C-7.3058905 226.18272415 -7.3058905 226.18272415 -8.79949951 226.17962646 C-10.29205261 226.18106155 -10.29205261 226.18106155 -11.8147583 226.18252563 C-13.92311669 226.18320756 -16.03147716 226.1813524 -18.13983154 226.17718506 C-21.37929978 226.17183699 -24.61862937 226.17712964 -27.85809326 226.18353271 C-29.90106232 226.18287194 -31.94403129 226.18159078 -33.98699951 226.17962646 C-34.96302124 226.1816507 -35.93904297 226.18367493 -36.94464111 226.1857605 C-37.84227173 226.18260834 -38.73990234 226.17945618 -39.66473389 226.1762085 C-40.45891724 226.1754129 -41.25310059 226.17461731 -42.0713501 226.17379761 C-43.89324951 226.04681396 -43.89324951 226.04681396 -44.89324951 225.04681396 C-44.99340951 222.17915657 -45.02763759 219.3355082 -45.02023315 216.46734619 C-45.02179314 215.55656516 -45.02335314 214.64578412 -45.0249604 213.70740366 C-45.02897453 210.63107123 -45.02577916 207.55478746 -45.02264404 204.47845459 C-45.0239979 202.28291291 -45.02577774 200.08737146 -45.0279541 197.89183044 C-45.03253028 191.91060268 -45.03073812 185.92939207 -45.02757502 179.94816399 C-45.02505236 173.70390652 -45.02738869 167.45965058 -45.02896118 161.21539307 C-45.03090003 150.05426116 -45.02778225 138.89313557 -45.02270184 127.73200518 C-45.0182338 117.60239979 -45.01900973 107.47280586 -45.02362061 97.34320068 C-45.02896631 85.59365939 -45.03096724 73.84412368 -45.02800834 62.09458113 C-45.02644513 55.86994114 -45.026253 49.64530905 -45.02954483 43.42066956 C-45.0324224 37.57015505 -45.03044997 31.7196623 -45.02465057 25.86915016 C-45.02332236 23.71519316 -45.02371812 21.56123435 -45.02591324 19.40727806 C-45.02862235 16.48025413 -45.02524657 13.55330108 -45.02023315 10.62628174 C-45.02246388 9.76219523 -45.0246946 8.89810872 -45.02699292 8.00783777 C-45.00739933 2.16096379 -45.00739933 2.16096379 -43.89324951 1.04681396 C-41.35599806 0.88455798 -38.84379523 0.78646197 -36.30340576 0.73040771 C-35.5086232 0.70944534 -34.71384064 0.68848297 -33.89497375 0.66688538 C-31.24867524 0.59968714 -28.60229187 0.5410614 -25.95574951 0.48431396 C-24.5954361 0.45404114 -24.5954361 0.45404114 -23.2076416 0.42315674 C-15.47217865 0.25412186 -7.73627174 0.12517605 0 0 Z " fill="#98E73E" transform="translate(155.89324951171875,132.95318603515625)"/>
<path d="M0 0 C-0.33 16.5 -0.66 33 -1 50 C9.89 50 20.78 50 32 50 C32 63.2 32 76.4 32 90 C20.78 90 9.56 90 -2 90 C-1.9595901 100.40589684 -1.90239098 110.81133664 -1.81609726 121.21695614 C-1.77668366 126.04935449 -1.74446525 130.88157228 -1.72900391 135.71411133 C-1.71379694 140.38276775 -1.67928005 145.05092759 -1.63169098 149.71936226 C-1.61691873 151.49538404 -1.60896138 153.27147673 -1.60811615 155.04755974 C-1.9512968 169.68670349 -1.9512968 169.68670349 5 182 C8.51316338 183.75658169 11.87218572 184.14170064 15.765625 184.31640625 C16.65507812 184.35830078 17.54453125 184.40019531 18.4609375 184.44335938 C19.38132812 184.48267578 20.30171875 184.52199219 21.25 184.5625 C22.18585938 184.60568359 23.12171875 184.64886719 24.0859375 184.69335938 C26.39048641 184.7991805 28.69513839 184.90126557 31 185 C31.09889302 189.50229474 31.17147709 194.00395727 31.21972656 198.50708008 C31.2398398 200.03876762 31.2671345 201.57037839 31.30175781 203.10180664 C31.35029315 205.30374073 31.37296996 207.50465982 31.390625 209.70703125 C31.41127014 210.39150833 31.43191528 211.07598541 31.45318604 211.78120422 C31.45469626 214.98254363 31.42638565 216.56693206 29.13061523 218.89868164 C26.71454575 220.14755175 24.44440391 220.93379291 21.8125 221.625 C20.93207031 221.86476563 20.05164063 222.10453125 19.14453125 222.3515625 C2.12775846 225.8606113 -17.51644075 226.48772235 -32.4375 216.6875 C-42.99257256 208.6471692 -47.57602634 199.22836077 -49.72043228 186.22716522 C-50.72228748 178.24592522 -50.35689562 170.09646515 -50.29296875 162.0703125 C-50.28736143 159.98282173 -50.28309671 157.89532697 -50.28010559 155.80783081 C-50.2687462 150.35972866 -50.23935738 144.91187308 -50.20599365 139.46386719 C-50.17509897 133.88610162 -50.16155911 128.30829554 -50.14648438 122.73046875 C-50.11447777 111.8202052 -50.06339139 100.91012324 -50 90 C-50.6612085 90.00523682 -51.32241699 90.01047363 -52.00366211 90.01586914 C-54.98159851 90.03657656 -57.95951982 90.04964012 -60.9375 90.0625 C-62.49887695 90.07506836 -62.49887695 90.07506836 -64.09179688 90.08789062 C-65.08115234 90.09111328 -66.07050781 90.09433594 -67.08984375 90.09765625 C-68.46450806 90.10551147 -68.46450806 90.10551147 -69.86694336 90.11352539 C-72 90 -72 90 -73 89 C-73.10103255 86.20006403 -73.13970088 83.42531356 -73.1328125 80.625 C-73.13376923 79.78533691 -73.13472595 78.94567383 -73.13571167 78.08056641 C-73.13639348 76.30175705 -73.13453917 74.52294523 -73.13037109 72.74414062 C-73.12502283 70.01166224 -73.13031605 67.27934824 -73.13671875 64.546875 C-73.13605797 62.8229163 -73.13477681 61.09895771 -73.1328125 59.375 C-73.13483673 58.55209473 -73.13686096 57.72918945 -73.13894653 56.88134766 C-73.11495054 51.11495054 -73.11495054 51.11495054 -72 50 C-70.36527118 49.91299658 -68.72685945 49.89298937 -67.08984375 49.90234375 C-66.10048828 49.90556641 -65.11113281 49.90878906 -64.09179688 49.91210938 C-63.05087891 49.92048828 -62.00996094 49.92886719 -60.9375 49.9375 C-59.37032227 49.94426758 -59.37032227 49.94426758 -57.77148438 49.95117188 C-55.1809334 49.96300087 -52.59049441 49.97948311 -50 50 C-49.9498877 49.26587891 -49.89977539 48.53175781 -49.84814453 47.77539062 C-48.14371686 23.08631131 -48.14371686 23.08631131 -47 13.4375 C-46.855625 12.21933594 -46.71125 11.00117188 -46.5625 9.74609375 C-46 7 -46 7 -44 5 C-42.22315979 4.56967163 -42.22315979 4.56967163 -40.05688477 4.31396484 C-39.24586807 4.21401215 -38.43485138 4.11405945 -37.59925842 4.01107788 C-36.72216721 3.91203156 -35.84507599 3.81298523 -34.94140625 3.7109375 C-34.04131332 3.60278717 -33.1412204 3.49463684 -32.21385193 3.38320923 C-29.33096084 3.03905287 -26.44679871 2.70712991 -23.5625 2.375 C-21.62165507 2.1439817 -19.68089847 1.91222003 -17.74023438 1.6796875 C-14.18481841 1.25793842 -10.62940219 0.83637155 -7.07250977 0.42724609 C-6.35684341 0.34445404 -5.64117706 0.26166199 -4.90382385 0.17636108 C-3 0 -3 0 0 0 Z " fill="#98E73E" transform="translate(370,138)"/>
<path d="M0 0 C48.24137931 0 48.24137931 0 59 10 C65.9355355 17.5339556 68.55937067 24.70104299 68.4375 34.8125 C68.42847656 35.7003418 68.41945313 36.58818359 68.41015625 37.50292969 C68.1734534 46.44832479 66.47684045 52.60541626 60.375 59.3125 C43.99363785 74.33127195 20.55160447 72 0 72 C0 48.24 0 24.48 0 0 Z " fill="#1E3201" transform="translate(158,175)"/>
</svg>
